{"title":"The Freddie Mercury Tribute Concert (1992) SD-BluRay","uid":11569821,"size":48508232113,"categoryP":"video","categoryS":"other","magnet":"?xt=urn:btih:084089394ff8e259fabe641560bcb0f77f0f3ec3&amp;dn=The+Freddie+Mercury+Tribute+Concert+%281992%29+SD-BluRay&amp;tr=udp%3A%2F%2Ftracker.openbittorrent.com%3A80&amp;tr=udp%3A%2F%2Fopen.demonii.com%3A1337&amp;tr=udp%3A%2F%2Ftracker.coppersurfer.tk%3A6969&amp;tr=udp%3A%2F%2Fexodus.desync.com%3A6969","seeders":5,"leechers":5,"uploader":"gixer1000k9","files":-1,"time":1417001085,"description":"The Freddie Mercury Tribute Concert - Wembley (1992)\n\nA live concert in tribute to Freddie Mercury, former lead singer of Queen. Mercury died of AIDS and so some of the proceeds of this concert went to AIDS research. Features performers such as Metallica, Def Leppard, Elton John, Axl Rose, Extreme, George Michael, and many others. Performers alternate between doing their own hits, covering Queen songs, or jamming with the surviving members of Queen.\n\n &lt;a href=&quot;\nhttp://i.imgur.com/EP2LdXD.jpg&quot; rel=&quot;nofollow&quot; target=&quot;_NEW&quot;&gt;\nhttp://i.imgur.com/EP2LdXD.jpg&lt;/a&gt;\n &lt;a href=&quot;\nhttp://i.imgur.com/UF9EJ8w.jpg&quot; rel=&quot;nofollow&quot; target=&quot;_NEW&quot;&gt;\nhttp://i.imgur.com/UF9EJ8w.jpg&lt;/a&gt;\n &lt;a href=&quot;\nhttp://i.imgur.com/lCjVDZw.jpg&quot; rel=&quot;nofollow&quot; target=&quot;_NEW&quot;&gt;\nhttp://i.imgur.com/lCjVDZw.jpg&lt;/a&gt;\n &lt;a href=&quot;\nhttp://i.imgur.com/onXf73d.jpg&quot; rel=&quot;nofollow&quot; target=&quot;_NEW&quot;&gt;\nhttp://i.imgur.com/onXf73d.jpg&lt;/a&gt;\n &lt;a href=&quot;\nhttp://i.imgur.com/0D7BELO.jpg&quot; rel=&quot;nofollow&quot; target=&quot;_NEW&quot;&gt;\nhttp://i.imgur.com/0D7BELO.jpg&lt;/a&gt;\n &lt;a href=&quot;\nhttp://i.imgur.com/i6b6QmN.jpg&quot; rel=&quot;nofollow&quot; target=&quot;_NEW&quot;&gt;\nhttp://i.imgur.com/i6b6QmN.jpg&lt;/a&gt;\n &lt;a href=&quot;\nhttp://i.imgur.com/TU2RdHR.jpg&quot; rel=&quot;nofollow&quot; target=&quot;_NEW&quot;&gt;\nhttp://i.imgur.com/TU2RdHR.jpg&lt;/a&gt;\n\n\nTechnical Data:\n\nDISC INFO:\n\nDisc Title:     Queen.The.Freddie.Mercury.Tribute.Concert.1992.COMPLETE.BLURAY\nDisc Size:      48 508 232 113 bytes\nProtection:     AACS\nBD-Java:        No\nBDInfo:         0.5.8\n\nPLAYLIST REPORT:\n\nName:                   00000.MPLS\nLength:                 3:10:00.388 (h:m:s.ms)\nSize:                   35 948 919 552 bytes\nTotal Bitrate:          25,23 Mbps\n\nVIDEO:\n\nCodec                   Bitrate             Description     \n-----                   -------             -----------     \nMPEG-4 AVC Video        20127 kbps          1080i / 29,970 fps / 16:9 / High Profile 4.1\n\nAUDIO:\n\nCodec                           Language        Bitrate         Description     \n-----                           --------        -------         -----------     \nLPCM Audio                      English         1536 kbps       2.0 / 48 kHz / 1536 kbps / 16-bit\nDTS-HD High-Res Audio           English         2046 kbps       5.1 / 48 kHz / 2046 kbps / 24-bit (DTS Core: 5.1 / 48 kHz / 1509 kbps / 24-bit)\n\nFILES:\n\nName            Time In         Length          Size            Total Bitrate   \n----            -------         ------          ----            -------------   \n00000.M2TS      0:00:00.000     1:23:49.391     15 966 477 696  25 397          \n00001.M2TS      1:23:49.391     1:46:09.996     19 982 411 136  25 096          \n00020.M2TS      3:09:59.387     0:00:01.000     30 720          246","torrent":{"xt":"urn:btih:084089394ff8e259fabe641560bcb0f77f0f3ec3","amp;dn":"The+Freddie+Mercury+Tribute+Concert+%281992%29+SD-BluRay","amp;tr":["udp%3A%2F%2Ftracker.openbittorrent.com%3A80","udp%3A%2F%2Fopen.demonii.com%3A1337","udp%3A%2F%2Ftracker.coppersurfer.tk%3A6969","udp%3A%2F%2Fexodus.desync.com%3A6969"],"infoHash":"084089394ff8e259fabe641560bcb0f77f0f3ec3","infoHashBuffer":{"type":"Buffer","data":[8,64,137,57,79,248,226,89,250,190,100,21,96,188,176,247,127,15,62,195]},"announce":[],"urlList":[]}}